REM DIRINDEX 1\3,1\2\4,1\2\5,1\2\6
REM DIRNAME cjc137,folder01,folder02,folder03,folder04,folder05
TITLE ""
FILE "107.mp3" MP3
  TRACK 01 AUDIO
    TITLE "4:cjc137_4413"
    INDEX 01 00:00:00
  TRACK 02 AUDIO
    TITLE "0:"
    INDEX 01 00:01:21
  TRACK 03 AUDIO
    TITLE "6:cjc137_4414"
    INDEX 01 00:01:26
  TRACK 04 AUDIO
    TITLE "0:"
    INDEX 01 00:02:14
  TRACK 05 AUDIO
    TITLE "5:cjc137_4415"
    INDEX 01 00:02:22
  TRACK 06 AUDIO
    TITLE "0:"
    INDEX 01 00:03:41
  TRACK 07 AUDIO
    TITLE "4:cjc137_4416"
    INDEX 01 00:04:48
  TRACK 08 AUDIO
    TITLE "0:"
    INDEX 01 00:05:50
  TRACK 09 AUDIO
    TITLE "6:cjc137_4417"
    INDEX 01 00:05:56
  TRACK 10 AUDIO
    TITLE "0:"
    INDEX 01 00:06:41
  TRACK 11 AUDIO
    TITLE "5:cjc137_4418"
    INDEX 01 00:06:45
  TRACK 12 AUDIO
    TITLE "0:"
    INDEX 01 00:07:47
  TRACK 13 AUDIO
    TITLE "4:cjc137_4419"
    INDEX 01 00:08:54
  TRACK 14 AUDIO
    TITLE "0:"
    INDEX 01 00:09:73
  TRACK 15 AUDIO
    TITLE "6:cjc137_4420"
    INDEX 01 00:10:04
  TRACK 16 AUDIO
    TITLE "0:"
    INDEX 01 00:11:11
  TRACK 17 AUDIO
    TITLE "5:cjc137_4421"
    INDEX 01 00:11:17
  TRACK 18 AUDIO
    TITLE "0:"
    INDEX 01 00:12:32
  TRACK 19 AUDIO
    TITLE "4:cjc137_4422"
    INDEX 01 00:13:41
  TRACK 20 AUDIO
    TITLE "0:"
    INDEX 01 00:14:47
  TRACK 21 AUDIO
    TITLE "6:cjc137_4423"
    INDEX 01 00:14:53
  TRACK 22 AUDIO
    TITLE "0:"
    INDEX 01 00:15:62
  TRACK 23 AUDIO
    TITLE "5:cjc137_4424"
    INDEX 01 00:15:66
  TRACK 24 AUDIO
    TITLE "0:"
    INDEX 01 00:16:67
  TRACK 25 AUDIO
    TITLE "4:cjc137_4425"
    INDEX 01 00:18:01
  TRACK 26 AUDIO
    TITLE "0:"
    INDEX 01 00:19:15
  TRACK 27 AUDIO
    TITLE "6:cjc137_4426"
    INDEX 01 00:19:18
  TRACK 28 AUDIO
    TITLE "0:"
    INDEX 01 00:20:20
  TRACK 29 AUDIO
    TITLE "5:cjc137_4427"
    INDEX 01 00:20:28
  TRACK 30 AUDIO
    TITLE "0:"
    INDEX 01 00:21:41
  TRACK 31 AUDIO
    TITLE "4:cjc137_4428"
    INDEX 01 00:22:50
  TRACK 32 AUDIO
    TITLE "0:"
    INDEX 01 00:23:46
  TRACK 33 AUDIO
    TITLE "6:cjc137_4429"
    INDEX 01 00:23:57
  TRACK 34 AUDIO
    TITLE "0:"
    INDEX 01 00:24:47
  TRACK 35 AUDIO
    TITLE "5:cjc137_4430"
    INDEX 01 00:24:57
  TRACK 36 AUDIO
    TITLE "0:"
    INDEX 01 00:25:52
  TRACK 37 AUDIO
    TITLE "4:cjc137_4431"
    INDEX 01 00:26:62
  TRACK 38 AUDIO
    TITLE "0:"
    INDEX 01 00:28:19
  TRACK 39 AUDIO
    TITLE "6:cjc137_4432"
    INDEX 01 00:28:23
  TRACK 40 AUDIO
    TITLE "0:"
    INDEX 01 00:29:40
  TRACK 41 AUDIO
    TITLE "5:cjc137_4433"
    INDEX 01 00:29:46
  TRACK 42 AUDIO
    TITLE "0:"
    INDEX 01 00:31:02
  TRACK 43 AUDIO
    TITLE "4:cjc137_4434"
    INDEX 01 00:32:09
  TRACK 44 AUDIO
    TITLE "0:"
    INDEX 01 00:33:32
  TRACK 45 AUDIO
    TITLE "6:cjc137_4435"
    INDEX 01 00:33:38
  TRACK 46 AUDIO
    TITLE "0:"
    INDEX 01 00:34:59
  TRACK 47 AUDIO
    TITLE "5:cjc137_4436"
    INDEX 01 00:34:69
  TRACK 48 AUDIO
    TITLE "0:"
    INDEX 01 00:36:17
  TRACK 49 AUDIO
    TITLE "4:cjc137_4437"
    INDEX 01 00:37:24
  TRACK 50 AUDIO
    TITLE "0:"
    INDEX 01 00:38:37
  TRACK 51 AUDIO
    TITLE "6:cjc137_4438"
    INDEX 01 00:38:43
  TRACK 52 AUDIO
    TITLE "0:"
    INDEX 01 00:39:29
  TRACK 53 AUDIO
    TITLE "5:cjc137_4439"
    INDEX 01 00:39:41
  TRACK 54 AUDIO
    TITLE "0:"
    INDEX 01 00:40:52
  TRACK 55 AUDIO
    TITLE "4:cjc137_4440"
    INDEX 01 00:41:61
  TRACK 56 AUDIO
    TITLE "0:"
    INDEX 01 00:42:66
  TRACK 57 AUDIO
    TITLE "6:cjc137_4441"
    INDEX 01 00:43:03
  TRACK 58 AUDIO
    TITLE "0:"
    INDEX 01 00:44:07
  TRACK 59 AUDIO
    TITLE "5:cjc137_4442"
    INDEX 01 00:44:14
  TRACK 60 AUDIO
    TITLE "0:"
    INDEX 01 00:45:20
  TRACK 61 AUDIO
    TITLE "4:cjc137_4443"
    INDEX 01 00:46:33
  TRACK 62 AUDIO
    TITLE "0:"
    INDEX 01 00:47:44
  TRACK 63 AUDIO
    TITLE "6:cjc137_4444"
    INDEX 01 00:47:52
  TRACK 64 AUDIO
    TITLE "0:"
    INDEX 01 00:48:65
  TRACK 65 AUDIO
    TITLE "5:cjc137_4445"
    INDEX 01 00:48:73
  TRACK 66 AUDIO
    TITLE "0:"
    INDEX 01 00:50:11
  TRACK 67 AUDIO
    TITLE "4:cjc137_4446"
    INDEX 01 00:51:18
  TRACK 68 AUDIO
    TITLE "0:"
    INDEX 01 00:52:36
  TRACK 69 AUDIO
    TITLE "6:cjc137_4447"
    INDEX 01 00:52:43
  TRACK 70 AUDIO
    TITLE "0:"
    INDEX 01 00:53:57
  TRACK 71 AUDIO
    TITLE "5:cjc137_4448"
    INDEX 01 00:53:62
  TRACK 72 AUDIO
    TITLE "0:"
    INDEX 01 00:55:03
  TRACK 73 AUDIO
    TITLE "4:cjc137_4449"
    INDEX 01 00:56:14
  TRACK 74 AUDIO
    TITLE "0:"
    INDEX 01 00:57:29
  TRACK 75 AUDIO
    TITLE "6:cjc137_4450"
    INDEX 01 00:57:35
  TRACK 76 AUDIO
    TITLE "0:"
    INDEX 01 00:58:44
  TRACK 77 AUDIO
    TITLE "5:cjc137_4451"
    INDEX 01 00:58:52
  TRACK 78 AUDIO
    TITLE "0:"
    INDEX 01 00:59:65
  TRACK 79 AUDIO
    TITLE "4:cjc137_4452"
    INDEX 01 01:00:74
  TRACK 80 AUDIO
    TITLE "0:"
    INDEX 01 01:02:32
  TRACK 81 AUDIO
    TITLE "6:cjc137_4453"
    INDEX 01 01:02:38
  TRACK 82 AUDIO
    TITLE "0:"
    INDEX 01 01:03:53
  TRACK 83 AUDIO
    TITLE "5:cjc137_4454"
    INDEX 01 01:03:63
  TRACK 84 AUDIO
    TITLE "0:"
    INDEX 01 01:05:21
